<svg viewBox="27.052 228.379 201.97 202.583" xmlns="http://www.w3.org/2000/svg"><path d="M132.5 237.7c-8.7-.3-13.8.9-18.9 1.9-1.5-.4-4.4 0-4.6 3.4 0 1.8.6 3.2 1.7 4 1.1.8 10.7 7.9 17.7 15.3-3.4.4-7 1-10.7 1.8-4.2-9-17.6-.8-26.5-.5-1 0-2 .2-3.1.3-1-7.5-1.7-15.4-1.5-20.9 11.6-6.6 33.9-11.4 49.1-11.6l2.7-.1c2.2 0 2.4-1.8.3-2.1-18.9-2.6-35.2 1.2-52 8.2-17.5 7.4-39.7 24.3-53.2 56.3-3.2 8.9-15.9 51.4 6.7 87.9 18.3 29.6 41.8 43.7 70.6 47.7 28.7 4 44.3.5 62.5-7.5 42.5-18.9 75-89.7 42.5-141.1-13-23.9-46.5-44.6-83.3-43zm-16.1 33.2c5.6-1.3 11.2-2.1 16.9-2.6 4.7 5.6 8.9 11.7 12.5 18.1-5.8 2.8-13.4 4.9-16.5 9.4-1.3 1.9-1.6 4.4-1.7 7.1-9.5 2.3-18.7 5.3-27.7 9.2-3.2-9.5-6.1-19-8-27.4 9.2-8.9 20-10.4 24.5-13.8zm47.2 113.4c-2.5.3-5 .6-7.3.9-5.5.9-12.6 2.7-19.2 5.2-3.8-6-13.9-20.7-19.1-31.7 10.3-5.1 24.7-9.3 41.3-10.3 1.4 2.4 2.9 4.7 4.9 6.8 5.5 5.5-3.1 13.5-.6 29.1zM102.1 319c8-3.8 16.4-6.9 25.4-9.2-.1 2.4-.3 4.6-1.3 6.5-1.4 2.6-.8 10.2 1 12.7 5.4 7.9 14.3 3.5 21.1 6.3 3.1 1.3 5.2 3.4 6.9 6-14.1.9-27.9 4.2-40.8 10.1-6.6-14.1-12.3-32.4-12.3-32.4zm6 35.3c-.5.2-1 .5-1.6.8-7.7-2.2-15.4-4-23.3-5.6-7.1-1.5-7.4-1.1-15.4 1.3-1.1.3-2.2.6-3.3 1-1.1-2.8-2.2-5.7-3.2-8.6 10.3-7.9 20.6-14.5 34.4-21.3 3.7 10.5 8.8 24.8 12.4 32.4zm5.4 32.3c2.1-5.5 3.7-9.5 4.3-13.5 4.1 6.8 8.9 14.3 12.7 20.1-5.9 2.8-12.7 7.2-19.1 12 .5-7.3.6-14.7 2.1-18.6zm38.2-104.5-.3.3c-3-5.2-6.3-10.2-9.8-15.1 7.2-.4 16-.1 24.1.8-7.3 2.5-10.5 8.9-14 14zm-64.5 7.8c.1-.2.3-.3.4-.5 1.7 8.4 3.7 15.4 6.3 25.1-10 4.4-27.7 15.3-35.5 21.2-1.4-3.6-2.9-8.7-4.2-13.9 1.8-5.3 5.4-9 10.5-9.5 8.8-.8 16.3-13.9 22.5-22.4zm-38.7-12.8c9.4-13.1 22.1-25.9 33.7-32.3-.1 2.9.6 11.2 1.6 19.2-4.1.4-8.1.9-12.1 1.5-9.4 8-17 18-22.3 29.2-.8-7.4-1.2-13.7-.9-17.6zm-6.1 10.3s.4 7.6.8 13.1c0 0-5.6 6.3-8.4 11.4 1.1-10.3 3.5-15.6 7.6-24.5zm54.7 131.1c-28.9-9.1-50.3-33.4-58-59-4.4-15-6-30.7-4.7-46.2.4.1 1.3.5 2.7.1 1-.7 4.4-3.1 6.8-5.2l.1.9c-1.6 6.2-2.7 12.7-2.9 19.4 2.6 2.8 5.7 7.4 9.2 12.2-2.2 1.6-6.5 4.6-7.5 5.3-2.9 2.1-2.9 5.4-.8 7.3 1.2 1 3.5.6 4.4-.1 2.6-2 4.7-3.7 7.6-5.5 1.1 2.8 2.1 5.3 3.1 7.8-1.3 1.3-2.1 3.1-2.4 5.7-1 8.4 7 14.9 13.7 16.9.3.1.4.1.7.2.4.5.7 1.1 1.1 1.6-3.5 2.7-5.9 5.5-7.5 7.6-.9 1.2-2 3.1-1.1 3.4.9.4 3.8 0 5.1-.2 3.3-.6 5.9-4.3 8.2-5.7 2.8 3.8 7.3 8.7 11.9 13.4.2.9.4 1.8.6 2.5.9 2.9 2.1 5.7 3.5 8.5 3.4 1.6 6.9 2.9 10.5 4-1.4 1.6-2.9 3.3-4.3 5.1zm7.1 2.3c1.1-1.5 2.2-3.2 3.6-4.5 3.3 2.2 6.9 4.8 9.8 6.4-4.4-.5-9.6-.6-13.4-1.9zm22.2 2.2s-11.5-7.6-14.4-10.5c5.7-4.8 15-10.4 22.3-13.5 2.9 4.5 12.3 17.9 16.1 22.2-6.7 1.2-16.3 2.1-24 1.8zm47.9-10.8c-2 1.4-11.9 5.8-15.7 7.1-6.5-7.1-12.3-14.8-17.4-22.9 6-2.5 15.3-4.8 23.9-5.9.8 2.4 1.8 5 3.2 7.8 1.4 2.7 2.9 4.7 4.6 6.1l1.8-1.2c-.1 3-.2 6.1-.4 9zM172 258.8c-1.9-1.2-4.3-.8-3.3 1.4.4.8 1.9 2.2 3.1 3.7-7-1.9-25.8-3.4-34.7-2.6-5.8-6.5-12.5-14.5-20.4-19.8 35.7-2.2 67.8 12.5 82 29.9-4.7-2.5-14.9-6-19.1-6.9-2.4-2.3-5.2-4.1-7.6-5.7zm7.8 150.5c.2-2.9.3-6.6.4-10 3.5-2.7 6.8-5.6 9.8-8.8 3.9.5 7.8 1.1 10.2 1.7-5.3 6.7-12.6 12.2-20.4 17.1zm27.3-26.6c-.9 1.8-3.1 4.9-4.5 6.4-2.2-.9-5.6-1.8-9.1-2.7.6-.7 1.2-1.3 1.7-2 1.9-12.8-2.4-16.9 3-28.7l1.2-2.7c3 .8 5.8 1.8 8.2 2.8.4 4.4.4 19.5-.5 26.9zm-5-35.2c1.4-2.9 2.9-6 4.6-9.1.4 3.9.8 7.7.9 11.2-1.8-.7-3.7-1.4-5.5-2.1zm15.8 8.1-1.4 5.4c-1 3.7-4.2 12.4-5.9 15.9.7-4.7 1.2-17 1.1-19.5 1.1.4 3.6-1.1 4-2.4.4-1.4-4-3.5-4-3.5 0-6.4-.4-12.9-1.2-19.3 1-1.6 2-3.2 3.1-4.7-.2-3.8-.6-7.5-1.3-11.3.9.3 1.7.5 2.3.5 2 0 2-1.4 1.4-2.1-.4-.5-2.3-1.7-4.6-3-3.3-14.1-10.1-27.2-19.9-38 3.8 1.4 8.7 3.4 12.5 5.5 2.9 3.7 11.3 12 15.8 35.1 3.9 20.9-.5 36.8-1.9 41.4z"/></svg>