<svg viewBox="60.558 125.564 38 46" width="38" height="46" xmlns="http://www.w3.org/2000/svg"><path d="M65.558 125.564c-2.75 0-5 2.25-5 5v36c0 2.75 2.25 5 5 5h28c2.75 0 5-2.25 5-5v-36c0-2.75-2.25-5-5-5h-28zm0 2h28c1.668 0 3 1.332 3 3v36c0 1.668-1.332 3-3 3h-28c-1.668 0-3-1.332-3-3v-36c0-1.668 1.332-3 3-3zm9.406 5-4.937.031s.004 16.23.031 16.157c15.137-5.891 14-1.72 14-1.72v17.47h4.75v-17.408c0-9.59-13.844-4.125-13.844-4.125v-10.405zm10.25.031s-1.707 3.942-3.593 6.25h5.25c2.847-3.687 3.78-6.25 3.78-6.25h-5.437zm-15.093 21.939v9.937l4.968-4.968-4.968-4.969z"/></svg>