<svg viewBox="335.157 598.118 133.981 147.377" width="133.981" height="147.377" xmlns="http://www.w3.org/2000/svg"><path d="M456.53 696.936c-.978 5.497-4.375 10.304-9.239 13.097-4.664 2.677-10.392 3.54-16.379 4.375a98.506 98.506 0 0 0-10.074 1.813c-8.866 2.188-17.415 6.419-25.705 10.535-10.564 5.239-20.552 10.19-29.821 10.19a22.324 22.324 0 0 1-13.241-4.231c-9.384-6.477-8.923-18.624-7.8-25.302 1.007-6.246 3.857-12.06 6.591-17.645l.49-.978c.921.316 1.928.604 2.936.777-1.641 9.038 2.964 18.393 11.945 22.999l1.612.834 1.756-.633c7.455-2.677 14.392-6.966 20.495-12.723a54.67 54.67 0 0 0 8.865-10.563c.979.172 1.958.23 2.965.23a19.148 19.148 0 0 0 18.48-14.306h7.167c2.188 8.405 9.787 14.306 18.48 14.306 3.54 0 6.822-.979 9.643-2.648 1.094 3.223 1.439 6.562.834 9.873zm-99.249-37.017c5.93 0 10.737 4.835 10.737 10.765 0 5.93-4.807 10.737-10.737 10.737-5.929 0-10.736-4.807-10.736-10.737 0-5.901 4.807-10.765 10.736-10.765zm41.997.316.604-.115h.116l.489-.086h.173l.489-.058h1.641l.431.058.231.057.46.058.173.029.576.115h.057l.518.201.173.029.432.173.115.057.489.202h.058l.547.317h.057l.49.287.086.058.461.288.057.057c.489.375.979.806 1.468 1.238l.029.029c1.928 2.015 2.993 4.663 2.965 7.426-.461 13.875-21.042 13.875-21.502 0 0-4.922 3.367-9.211 8.117-10.42zm21.387 6.736a18.785 18.785 0 0 0-5.757-10.247l8.837-17.818 8.923 18.192c-2.677 2.648-4.577 6.016-5.354 9.873h-6.649zm-30.512-60.304h67.097l-15.4 45.422c-.662.115-1.266.346-1.928.547l-16.206-33.045-16.263 32.844a14.62 14.62 0 0 0-2.015-.461l-15.285-45.307zm66.637 64.017c0 5.93-4.836 10.737-10.737 10.737-10.161-.029-14.623-12.867-6.65-19.2l.029-.028 1.094-.777.086-.029.49-.317.115-.029.604-.259.605-.259.115-.029.518-.172.173-.058.604-.115h.029l.633-.144.173-.058.518-.057h.202l.691-.029h.546l.49.029h.058l1.036.201a10.923 10.923 0 0 1 8.578 10.593zm8.318 0a19.09 19.09 0 0 0-14.306-18.48l18.336-54.086h-90.902l18.394 54.288c-8.146 2.36-13.788 9.844-13.788 18.336 0 6.39 3.195 12.089 8.06 15.601-1.929 2.763-4.174 5.296-6.65 7.628-4.519 4.318-9.873 7.743-15.658 10.132-5.124-3.454-7.341-9.585-5.354-15.026 20.869-6.505 16.263-37.247-5.556-37.333-10.564.029-19.113 8.549-19.113 19.113 0 5.21 2.101 9.988 5.527 13.413-.317.576-.605 1.209-.921 1.814-2.821 5.872-6.074 12.521-7.311 19.976-2.476 14.94 1.583 26.943 11.369 33.736a31.193 31.193 0 0 0 18.077 5.699c11.197 0 22.596-5.642 33.62-11.111 7.859-3.857 15.976-7.916 23.921-9.873 2.964-.719 6.016-1.151 9.268-1.641 6.563-.921 13.356-1.928 19.458-5.469a27.508 27.508 0 0 0 13.414-18.969c1.065-6.102 0-12.233-2.735-17.616 1.843-2.965 2.85-6.39 2.85-10.132" style="fill:#100f0d;fill-opacity:1;fill-rule:nonzero;stroke:none;opacity:.9"/></svg>