<svg id="Layer_1" data-name="Layer 1" xmlns="http://www.w3.org/2000/svg" viewBox="0 0 131.2 131.56"><defs><style>.cls-1{fill:#fff;}.cls-2{fill:#67c9cd;}.cls-3{fill:#25b8eb;}.cls-4{fill:#9f59a3;}.cls-5{fill:#ed1b5d;}</style></defs><title>jwt</title><path class="cls-1" d="M322.54,276.69l-0.13-35.39H302.66l0.13,35.39,9.87,13.56Zm-19.75,60.65v35.52h19.75V337.34l-9.87-13.56Z" transform="translate(-247 -241.3)"/><path class="cls-2" d="M322.54,337.34L343.34,366l15.92-11.58-20.8-28.69-15.92-5.14v16.72Zm-19.75-60.65L281.86,248l-15.92,11.58,20.8,28.67,16,5.14V276.69Z" transform="translate(-247 -241.3)"/><path class="cls-3" d="M286.75,288.27l-33.68-10.93L247,296l33.68,11.05,15.92-5.26Zm41.83,23.94,9.87,13.56,33.68,10.93L378.2,318l-33.68-10.93Z" transform="translate(-247 -241.3)"/><path class="cls-4" d="M344.49,307.09L378.18,296l-6.06-18.67-33.68,10.93-9.87,13.56Zm-63.81,0L247,318l6.06,18.67,33.68-10.93,9.87-13.56Z" transform="translate(-247 -241.3)"/><path class="cls-5" d="M286.75,325.76l-20.8,28.69L281.86,366l20.93-28.69V320.63Zm51.71-37.49,20.8-28.69L343.34,248l-20.8,28.67v16.72Z" transform="translate(-247 -241.3)"/></svg>