<svg data-name="Layer 1" xmlns="http://www.w3.org/2000/svg" viewBox="0 0 216.56 448.5"><path d="M202.77 179.74c-23-101.51-77.36-134.89-83.21-147.64-6.42-9-12.89-25-12.89-25-.11-.27-.28-.75-.48-1.21-.66 9-1 12.47-9.51 21.54-13.17 10.3-80.75 67-86.25 182.33-5.13 107.56 77.7 171.66 88.93 179.83l1.27.9v-.08c.07.54 3.55 25.6 6 52.16h8.77a516.82 516.82 0 0 1 9.26-55.85l.68-.46a145.43 145.43 0 0 0 14.3-11.7l.51-.46c23.81-22 66.62-72.88 66.2-154a246.84 246.84 0 0 0-3.58-40.36zm-97.09 149.12s0-150.86 5-150.83c3.88 0 8.91 194.59 8.91 194.59-6.93-.83-13.91-32.02-13.91-43.76z"/></svg>