<svg id="Layer_1" data-name="Layer 1" xmlns="http://www.w3.org/2000/svg" viewBox="0 0 512 512"><title>plug1</title><path d="M297.45,279.81a14.17,14.17,0,0,0-20,0l-31.87,31.87-45.22-45.22,31.87-31.87a14.17,14.17,0,0,0-20-20l-31.87,31.87-25.49-25.49a14.17,14.17,0,0,0-20,0L78.39,277.3A107.6,107.6,0,0,0,71,421.1a14.21,14.21,0,0,0-1.33,1.16L4.15,487.81a14.17,14.17,0,1,0,20,20L89.74,442.3A14.21,14.21,0,0,0,90.9,441a107.6,107.6,0,0,0,143.8-7.37l56.36-56.36a14.17,14.17,0,0,0,0-20l-25.48-25.48,31.87-31.87A14.17,14.17,0,0,0,297.45,279.81Zm-82.64,89.53a9.45,9.45,0,0,1-13.36,0l-58.79-58.79A9.45,9.45,0,1,1,156,297.19L214.81,356A9.45,9.45,0,0,1,214.81,369.34Zm293-345.15a14.17,14.17,0,0,0-20-20L422.26,69.7A14,14,0,0,0,421.1,71,107.46,107.46,0,0,0,277.3,78.4l-56.36,56.36a14.17,14.17,0,0,0,0,20L357.21,291.06a14.17,14.17,0,0,0,20,0L433.6,234.7A107.46,107.46,0,0,0,441,90.9a14.44,14.44,0,0,0,1.33-1.16ZM370.72,213.43a9.45,9.45,0,0,1-13.36,0l-58.79-58.79a9.45,9.45,0,1,1,13.36-13.36l58.79,58.79A9.45,9.45,0,0,1,370.72,213.43ZM146,135.51a6.74,6.74,0,0,0,.17-9.62L113.94,92.5a6.8,6.8,0,0,0-9.79,9.44l32.21,33.4A7,7,0,0,0,146,135.51Zm63.72-97A6.45,6.45,0,0,0,204.17,46l8.23,45.41a6.59,6.59,0,0,0,7.82,5.8,6.45,6.45,0,0,0,3.42-1.64,6.38,6.38,0,0,0,1.81-6.19L217.22,44A6.2,6.2,0,0,0,209.69,38.51ZM103.9,208.87a6.45,6.45,0,0,0,1.76-3.36,7,7,0,0,0-5.22-8.3L55.65,186.49A6.93,6.93,0,1,0,52.57,200l44.78,10.72A6.64,6.64,0,0,0,103.9,208.87ZM362.8,384.49l33.4,32.21a6.8,6.8,0,0,0,9.44-9.79l-33.4-32.21a6.74,6.74,0,0,0-9.62.17A7,7,0,0,0,362.8,384.49Zm91.32-80.87-45.41-8.23a6.38,6.38,0,0,0-6.19,1.81,6.45,6.45,0,0,0-1.64,3.42,6.59,6.59,0,0,0,5.8,7.82l45.41,8.23a6.45,6.45,0,0,0,7.54-5.51A6.2,6.2,0,0,0,454.12,303.62ZM287.42,423.48l10.72,44.78a6.93,6.93,0,1,0,13.52-3.07l-10.72-44.78a7,7,0,0,0-8.3-5.22,6.45,6.45,0,0,0-3.36,1.76A6.64,6.64,0,0,0,287.42,423.48Z" transform="translate(0 0)"/></svg>