<svg data-name="Layer 1" xmlns="http://www.w3.org/2000/svg" viewBox="0 0 512 512"><path d="M297.45 279.81a14.17 14.17 0 0 0-20 0l-31.87 31.87-45.22-45.22 31.87-31.87a14.17 14.17 0 0 0-20-20l-31.87 31.87-25.49-25.49a14.17 14.17 0 0 0-20 0L78.39 277.3A107.6 107.6 0 0 0 71 421.1a14.21 14.21 0 0 0-1.33 1.16L4.15 487.81a14.17 14.17 0 1 0 20 20l65.59-65.51a14.21 14.21 0 0 0 1.16-1.3 107.6 107.6 0 0 0 143.8-7.37l56.36-56.36a14.17 14.17 0 0 0 0-20l-25.48-25.48 31.87-31.87a14.17 14.17 0 0 0 0-20.11zm-82.64 89.53a9.45 9.45 0 0 1-13.36 0l-58.79-58.79A9.45 9.45 0 1 1 156 297.19L214.81 356a9.45 9.45 0 0 1 0 13.34zm293-345.15a14.17 14.17 0 0 0-20-20L422.26 69.7a14 14 0 0 0-1.16 1.3 107.46 107.46 0 0 0-143.8 7.4l-56.36 56.36a14.17 14.17 0 0 0 0 20l136.27 136.3a14.17 14.17 0 0 0 20 0l56.39-56.36A107.46 107.46 0 0 0 441 90.9a14.44 14.44 0 0 0 1.33-1.16zM370.72 213.43a9.45 9.45 0 0 1-13.36 0l-58.79-58.79a9.45 9.45 0 1 1 13.36-13.36l58.79 58.79a9.45 9.45 0 0 1 0 13.36zM146 135.51a6.74 6.74 0 0 0 .17-9.62L113.94 92.5a6.8 6.8 0 0 0-9.79 9.44l32.21 33.4a7 7 0 0 0 9.64.17zm63.72-97a6.45 6.45 0 0 0-5.55 7.49l8.23 45.41a6.59 6.59 0 0 0 7.82 5.8 6.45 6.45 0 0 0 3.42-1.64 6.38 6.38 0 0 0 1.81-6.19L217.22 44a6.2 6.2 0 0 0-7.53-5.49zM103.9 208.87a6.45 6.45 0 0 0 1.76-3.36 7 7 0 0 0-5.22-8.3l-44.79-10.72A6.93 6.93 0 1 0 52.57 200l44.78 10.72a6.64 6.64 0 0 0 6.55-1.85zm258.9 175.62 33.4 32.21a6.8 6.8 0 0 0 9.44-9.79l-33.4-32.21a6.74 6.74 0 0 0-9.62.17 7 7 0 0 0 .18 9.62zm91.32-80.87-45.41-8.23a6.38 6.38 0 0 0-6.19 1.81 6.45 6.45 0 0 0-1.64 3.42 6.59 6.59 0 0 0 5.8 7.82l45.41 8.23a6.45 6.45 0 0 0 7.54-5.51 6.2 6.2 0 0 0-5.51-7.54zm-166.7 119.86 10.72 44.78a6.932 6.932 0 1 0 13.52-3.07l-10.72-44.78a7 7 0 0 0-8.3-5.22 6.45 6.45 0 0 0-3.36 1.76 6.64 6.64 0 0 0-1.86 6.53z"/></svg>