<svg viewBox="90.291 65.548 255.497 318.323" width="255.497" height="318.323" xmlns="http://www.w3.org/2000/svg"><mask id="a" fill="#fff"><path d="m100.163 358.872-9.86-262.75c-.327-8.679 6.326-16.034 14.993-16.574L328.785 65.58c8.822-.552 16.42 6.153 16.972 14.975.02.332.031.665.031.998v286.314c0 8.839-7.165 16.004-16.004 16.004-.24 0-.48-.005-.718-.016l-213.627-9.595c-8.32-.373-14.963-7.065-15.276-15.388z"/></mask><path d="m100.163 358.872-9.86-262.75c-.327-8.679 6.326-16.034 14.993-16.574L328.785 65.58c8.822-.552 16.42 6.153 16.972 14.975.02.332.031.665.031.998v286.314c0 8.839-7.165 16.004-16.004 16.004-.24 0-.48-.005-.718-.016l-213.627-9.595c-8.32-.373-14.963-7.065-15.276-15.388z"/><path d="m278.956 104.675 1.527-36.716 30.692-2.411 1.322 37.863c.066 1.836-1.88 3.055-3.504 2.195a2.446 2.446 0 0 1-.36-.235l-11.835-9.325-14.013 10.63c-1.463 1.111-3.581.222-3.812-1.601a2.33 2.33 0 0 1-.017-.4zm-39.251 80.853c0 6.227 41.942 3.243 47.572-1.131 0-42.402-22.752-64.684-64.415-64.684-41.662 0-65.005 22.628-65.005 56.57 0 59.117 79.78 60.249 79.78 92.494 0 9.052-4.433 14.426-14.184 14.426-12.705 0-17.729-6.49-17.138-28.552 0-4.786-48.458-6.278-49.936 0-3.762 53.466 29.548 68.887 67.665 68.887 36.935 0 65.892-19.687 65.892-55.326 0-63.36-80.961-61.663-80.961-93.06 0-12.728 9.455-14.425 15.07-14.425 5.909 0 16.546 1.042 15.66 24.801z" mask="url(#a)" fill="#FFF"/></svg>